<?xml version="1.0" encoding="UTF-8"?>
<svg xmlns="http://www.w3.org/2000/svg" viewBox="0 0 16 16">
  <defs>
    <style>
      .cls-1, .cls-2 {
        stroke-width: 0px;
      }

      .cls-2 {
        fill: #fff;
      }
    </style>
  </defs>
  <g id="Layer_2" data-name="Layer 2">
    <circle class="cls-2" cx="8" cy="8" r="8"/>
  </g>
  <g id="Layer_1" data-name="Layer 1">
    <path class="cls-1" d="m10.93,12.08c-.9.79-2.08,1.26-3.38,1.26-2.93,0-5.15-2.38-5.15-5.39S4.62,2.55,7.55,2.55c1.3,0,2.48.47,3.38,1.28v-.14c0-.63.49-1.12,1.12-1.12s1.12.49,1.12,1.12v8.49c0,.63-.49,1.14-1.12,1.14s-1.12-.51-1.12-1.14v-.1Zm0-4.13v-.14c-.08-1.81-1.42-3.18-3.13-3.18s-3.13,1.42-3.13,3.32,1.38,3.32,3.13,3.32,3.13-1.42,3.13-3.32Z"/>
  </g>
</svg>